<mxfile host="app.diagrams.net" agent="Mozilla/5.0 (Windows NT 10.0; Win64; x64) AppleWebKit/537.36 (KHTML, like Gecko) Chrome/129.0.0.0 Safari/537.36" border="50" scale="3" compressed="false" locked="false" version="24.7.16">
  <diagram name="Blank" id="YmL12bMKpDGza6XwsDPr">
    <mxGraphModel dx="1916" dy="584" grid="0" gridSize="10" guides="1" tooltips="1" connect="1" arrows="1" fold="1" page="0" pageScale="1" pageWidth="827" pageHeight="1169" background="none" math="1" shadow="0">
      <root>
        <mxCell id="X5NqExCQtvZxIxQ7pmgY-0" />
        <mxCell id="1" parent="X5NqExCQtvZxIxQ7pmgY-0" />
        <mxCell id="1vSAdR6641GovA7WgB2n-21" value="Party page" style="ellipse;whiteSpace=wrap;html=1;" vertex="1" parent="1">
          <mxGeometry x="-252" y="102" width="120" height="80" as="geometry" />
        </mxCell>
        <mxCell id="1vSAdR6641GovA7WgB2n-32" value="3 rÃ©sz (+1 todo)" style="text;html=1;align=center;verticalAlign=middle;whiteSpace=wrap;rounded=0;" vertex="1" parent="1">
          <mxGeometry x="-253" y="175" width="121" height="30" as="geometry" />
        </mxCell>
        <mxCell id="1vSAdR6641GovA7WgB2n-33" value="" style="endArrow=none;dashed=1;html=1;dashPattern=1 3;strokeWidth=2;rounded=0;" edge="1" parent="1">
          <mxGeometry width="50" height="50" relative="1" as="geometry">
            <mxPoint x="-386" y="714" as="sourcePoint" />
            <mxPoint x="-390" y="228" as="targetPoint" />
          </mxGeometry>
        </mxCell>
        <mxCell id="1vSAdR6641GovA7WgB2n-34" value="" style="endArrow=none;dashed=1;html=1;dashPattern=1 3;strokeWidth=2;rounded=0;" edge="1" parent="1">
          <mxGeometry width="50" height="50" relative="1" as="geometry">
            <mxPoint x="-26" y="705" as="sourcePoint" />
            <mxPoint x="-30" y="219" as="targetPoint" />
          </mxGeometry>
        </mxCell>
        <mxCell id="1vSAdR6641GovA7WgB2n-35" value="" style="endArrow=none;dashed=1;html=1;dashPattern=1 3;strokeWidth=2;rounded=0;" edge="1" parent="1">
          <mxGeometry width="50" height="50" relative="1" as="geometry">
            <mxPoint x="305" y="700" as="sourcePoint" />
            <mxPoint x="301" y="214" as="targetPoint" />
          </mxGeometry>
        </mxCell>
        <mxCell id="1vSAdR6641GovA7WgB2n-37" value="Todo:" style="text;html=1;align=center;verticalAlign=middle;whiteSpace=wrap;rounded=0;" vertex="1" parent="1">
          <mxGeometry x="341" y="215" width="60" height="30" as="geometry" />
        </mxCell>
        <mxCell id="1vSAdR6641GovA7WgB2n-38" value="admin funkciok" style="text;html=1;align=center;verticalAlign=middle;whiteSpace=wrap;rounded=0;" vertex="1" parent="1">
          <mxGeometry x="341" y="288" width="60" height="30" as="geometry" />
        </mxCell>
        <mxCell id="1vSAdR6641GovA7WgB2n-39" value="Front page" style="text;html=1;align=center;verticalAlign=middle;whiteSpace=wrap;rounded=0;" vertex="1" parent="1">
          <mxGeometry x="-618" y="265" width="75" height="22" as="geometry" />
        </mxCell>
        <mxCell id="1vSAdR6641GovA7WgB2n-42" value="Kb az aktualis frontpage" style="text;html=1;align=center;verticalAlign=middle;whiteSpace=wrap;rounded=0;" vertex="1" parent="1">
          <mxGeometry x="-636" y="325" width="158" height="30" as="geometry" />
        </mxCell>
        <mxCell id="1vSAdR6641GovA7WgB2n-43" value="Infok a partyrol :&lt;br&gt;hely&lt;br&gt;ido&lt;br&gt;kontribuciok allasa %ban&lt;br&gt;jovo emberek szama (talan)" style="text;html=1;align=center;verticalAlign=middle;whiteSpace=wrap;rounded=0;" vertex="1" parent="1">
          <mxGeometry x="-646" y="406" width="172" height="31" as="geometry" />
        </mxCell>
        <mxCell id="1vSAdR6641GovA7WgB2n-44" value="Contribution page" style="text;html=1;align=center;verticalAlign=middle;whiteSpace=wrap;rounded=0;" vertex="1" parent="1">
          <mxGeometry x="-273" y="265" width="112" height="24" as="geometry" />
        </mxCell>
        <mxCell id="1vSAdR6641GovA7WgB2n-45" value="funkcionalisan b mint ami most van" style="text;html=1;align=center;verticalAlign=middle;whiteSpace=wrap;rounded=0;" vertex="1" parent="1">
          <mxGeometry x="-321.5" y="310" width="209" height="30" as="geometry" />
        </mxCell>
        <mxCell id="1vSAdR6641GovA7WgB2n-47" value="kontribuciok megetekintese&lt;br&gt;kontribuciok&amp;nbsp;letrehozasa" style="text;html=1;align=center;verticalAlign=middle;whiteSpace=wrap;rounded=0;" vertex="1" parent="1">
          <mxGeometry x="-294" y="387" width="162" height="30" as="geometry" />
        </mxCell>
        <mxCell id="1vSAdR6641GovA7WgB2n-48" value="Hall of fame page" style="text;html=1;align=center;verticalAlign=middle;whiteSpace=wrap;rounded=0;" vertex="1" parent="1">
          <mxGeometry x="102" y="251" width="115" height="30" as="geometry" />
        </mxCell>
        <mxCell id="1vSAdR6641GovA7WgB2n-49" value="Emberek es kontribucioik megtekintese" style="text;html=1;align=center;verticalAlign=middle;whiteSpace=wrap;rounded=0;" vertex="1" parent="1">
          <mxGeometry x="66.5" y="325" width="186" height="30" as="geometry" />
        </mxCell>
      </root>
    </mxGraphModel>
  </diagram>
</mxfile>
